<svg width="462" height="428" viewBox="0 0 462 428" fill="none" xmlns="http://www.w3.org/2000/svg">
<g clip-path="url(#clip0_47_261)">
<path d="M395.17 6.89001H254.59V259.44H395.17V6.89001Z" fill="#EBEBEB"/>
<path d="M388.11 14.21H260.21V251.91H388.11V14.21Z" fill="#FAFAFA"/>
<path d="M388.11 17.01L260.21 179.71V14.21H388.11V17.01Z" fill="#F5F5F5"/>
<path d="M390.89 82.59H260.21V85.12H390.89V82.59Z" fill="#EBEBEB"/>
<path d="M390.89 139.2H260.21V141.73H390.89V139.2Z" fill="#EBEBEB"/>
<path d="M390.89 195.8H260.21V198.33H390.89V195.8Z" fill="#EBEBEB"/>
<path d="M320.94 83.87V258.66H327.4V83.87H320.94Z" fill="#EBEBEB"/>
<path d="M287.77 14.21H284.84V83.85H287.77V14.21Z" fill="#EBEBEB"/>
<path d="M313.02 14.21H310.09V83.85H313.02V14.21Z" fill="#EBEBEB"/>
<path d="M338.27 14.21H335.34V83.85H338.27V14.21Z" fill="#EBEBEB"/>
<path d="M363.51 14.21H360.58V83.85H363.51V14.21Z" fill="#EBEBEB"/>
<path d="M254.6 2.60999H248.65V261H254.6V2.60999Z" fill="#F5F5F5"/>
<path d="M401.12 261.71L395.18 259.44V2.60999H401.12V261.71Z" fill="#E0E0E0"/>
<path d="M401.12 0H248.65V6.89H401.12V0Z" fill="#E0E0E0"/>
<path d="M405.15 262.56H244.43V268.98H405.15V262.56Z" fill="#E0E0E0"/>
<path d="M395.18 259.44L405.15 262.56H244.43L254.59 259.44H395.18Z" fill="#EBEBEB"/>
<path d="M255.06 425.56C271.84 415.49 276.91 394.99 277.57 376.29C277.68 373.17 278.25 369.91 276.95 367.07C275.65 364.23 272.33 362.13 269.46 363.25C267.07 364.18 265.87 366.8 264.46 368.93C262.526 371.779 259.826 374.022 256.67 375.4C254.67 376.29 252.12 376.75 250.24 375.54C247.65 373.87 247.59 370.14 247.83 367.04C248.257 361.267 248.693 355.497 249.14 349.73C249.537 346.647 249.436 343.521 248.84 340.47C248.08 337.47 246.14 334.59 243.25 333.56C240.36 332.53 236.6 333.97 235.77 336.96C235.565 338.234 235.444 339.52 235.41 340.81C235.24 342.09 234.54 343.47 233.29 343.75C232.04 344.03 230.85 343.06 229.99 342.09C226.99 338.74 225.12 334.56 223.37 330.42C221.62 326.28 219.94 322.03 217.27 318.42C214.6 314.81 210.79 311.83 206.37 311.27C201.95 310.71 197.03 313.12 195.61 317.4C194.19 321.68 196.43 326.29 198.95 330.02C202.702 335.548 207.232 340.505 212.4 344.74C213.412 345.399 214.189 346.362 214.62 347.49C215.15 349.6 213.06 351.49 210.97 352.06C208.61 352.66 206.12 352.25 203.69 352.37C201.26 352.49 198.56 353.37 197.49 355.59C196 358.67 198.42 362.17 200.87 364.52C205.791 369.231 211.484 373.063 217.7 375.85C219.92 376.85 222.27 377.74 223.99 379.47C225.71 381.2 226.63 384.06 225.37 386.16C224.11 388.26 221.21 388.77 218.86 388.16C216.51 387.55 214.46 386.11 212.24 385.09C208.1 383.19 202.58 383.09 199.6 386.59C198.68 387.799 198.053 389.205 197.769 390.697C197.484 392.189 197.55 393.727 197.96 395.19C198.797 398.108 200.212 400.829 202.12 403.19C208.306 411.757 216.653 418.531 226.31 422.82C235.95 426.93 245.03 428.49 255.09 425.58" fill="#F5F5F5"/>
<path d="M252 426.45C251.84 419.01 253.15 423.13 251 413.53C248.6 403.155 245.611 392.926 242.05 382.89L239.35 375C238.44 372.4 237.54 369.83 236.5 367.37C234.493 362.647 232.23 358.036 229.72 353.56C227.35 349.28 224.94 345.3 222.67 341.56C220.4 337.82 218.19 334.44 216.06 331.42C212.715 326.631 208.997 322.113 204.94 317.91C203.51 316.43 202.36 315.31 201.57 314.56L200.67 313.72C200.577 313.615 200.469 313.524 200.35 313.45C200.433 313.562 200.527 313.666 200.63 313.76L201.49 314.65C202.26 315.42 203.38 316.56 204.78 318.07C208.766 322.319 212.426 326.861 215.73 331.66C217.83 334.66 220 338.1 222.27 341.81C224.54 345.52 226.91 349.51 229.27 353.81C231.763 358.27 234.01 362.864 236 367.57C237 370.02 237.93 372.57 238.84 375.17C239.75 377.77 240.66 380.41 241.59 383.08C245.16 393.093 248.165 403.3 250.59 413.65C252.73 423.21 251.45 419.05 251.67 426.46" fill="#E0E0E0"/>
<path d="M236.34 367.32C236.512 366.9 236.643 366.465 236.73 366.02C236.95 365.17 237.23 363.94 237.56 362.41C238.21 359.36 238.97 355.11 239.78 350.41C240.59 345.71 241.41 341.49 242.11 338.46C242.45 336.94 242.74 335.71 242.95 334.87C243.089 334.438 243.18 333.992 243.22 333.54C243.011 333.943 242.85 334.369 242.74 334.81C242.46 335.64 242.11 336.81 241.74 338.36C240.94 341.36 240.06 345.61 239.24 350.3C238.42 354.99 237.73 359.12 237.18 362.3C236.93 363.75 236.71 364.96 236.53 365.94C236.412 366.391 236.348 366.854 236.34 367.32Z" fill="#E0E0E0"/>
<path d="M197 357.12C197.514 357.262 198.039 357.362 198.57 357.42C199.57 357.58 201.06 357.8 202.86 358.14C206.48 358.79 211.45 359.86 216.86 361.27C222.27 362.68 227.15 364.2 230.63 365.39C232.38 365.97 233.78 366.48 234.75 366.83C235.245 367.037 235.757 367.201 236.28 367.32C235.821 367.038 235.336 366.804 234.83 366.62C233.88 366.21 232.5 365.62 230.77 365C227.31 363.72 222.45 362.15 217.01 360.71C212.365 359.468 207.658 358.467 202.91 357.71C201.09 357.42 199.6 357.26 198.58 357.16C198.056 357.099 197.527 357.086 197 357.12Z" fill="#E0E0E0"/>
<path d="M250.62 412.76C250.738 412.619 250.838 412.464 250.92 412.3L251.7 410.9C252.38 409.69 253.3 407.9 254.42 405.7C256.66 401.27 259.56 395.05 262.66 388.15C265.76 381.25 268.6 375.02 270.74 370.55L273.3 365.26L273.98 363.82C274.067 363.654 274.137 363.48 274.19 363.3C274.065 363.441 273.961 363.599 273.88 363.77L273.1 365.16C272.43 366.37 271.5 368.16 270.38 370.37C268.15 374.8 265.25 381.01 262.14 387.91C259.03 394.81 256.2 401.05 254.06 405.52L251.51 410.8L250.82 412.24C250.731 412.404 250.663 412.579 250.62 412.76Z" fill="#E0E0E0"/>
<path d="M198.89 392.05C199.051 392.15 199.222 392.234 199.4 392.3L200.9 392.92L206.44 395.15C211.11 397.03 217.54 399.71 224.64 402.67C231.74 405.63 238.2 408.26 242.92 410.04C245.28 410.94 247.19 411.64 248.53 412.1L250.07 412.62C250.246 412.693 250.431 412.74 250.62 412.76C250.457 412.663 250.287 412.579 250.11 412.51L248.61 411.89L243.07 409.66C238.39 407.78 231.96 405.1 224.86 402.14C217.76 399.18 211.3 396.55 206.58 394.77C204.22 393.87 202.31 393.17 200.98 392.71L199.44 392.19C199.264 392.119 199.079 392.072 198.89 392.05Z" fill="#E0E0E0"/>
<path d="M176.61 38.36H138.8V50.53H176.61V38.36Z" fill="#F5F5F5"/>
<path d="M212.08 62.7H174.27V74.87H212.08V62.7Z" fill="#FAFAFA"/>
<path d="M191 62.7C190.996 62.6267 190.996 62.5533 191 62.48V61.84C191 61.25 191 60.45 191 59.43C191 57.31 190.94 54.3 190.9 50.53L191.07 50.7L154.07 50.79C154.19 50.68 153.81 51.05 154.33 50.53V56.74C154.33 58.74 154.33 60.74 154.33 62.68L154.08 62.43L180.51 62.55L188.27 62.62H190.37H191.11C190.884 62.6346 190.656 62.6346 190.43 62.62H188.38L180.68 62.69L154.08 62.8H153.83V62.7C153.83 60.78 153.83 58.79 153.83 56.76V50.55L154.09 50.29L191.09 50.38H191.27V50.55C191.27 54.36 191.19 57.41 191.17 59.55C191.17 60.55 191.17 61.35 191.17 61.93C191.138 62.1915 191.081 62.4493 191 62.7Z" fill="#E0E0E0"/>
<path d="M448.68 142.25H410.87V154.42H448.68V142.25Z" fill="#FAFAFA"/>
<path d="M461.41 141.94C461.406 141.867 461.406 141.793 461.41 141.72C461.41 141.55 461.41 141.34 461.41 141.08C461.41 140.5 461.41 139.69 461.41 138.67C461.41 136.55 461.35 133.54 461.31 129.77L461.48 129.94L424.48 130.03L424.74 129.77V136C424.74 138 424.74 140 424.74 141.94L424.49 141.69L450.92 141.81L458.68 141.88H460.78H461.52C461.293 141.893 461.066 141.893 460.84 141.88H458.79L451.09 141.95L424.49 142.07H424.24V141.81C424.24 139.89 424.24 137.9 424.24 135.87V129.66L424.5 129.4L461.5 129.49H461.68V129.66C461.68 133.47 461.61 136.52 461.59 138.66C461.59 139.66 461.59 140.45 461.59 141.03C461.565 141.339 461.505 141.645 461.41 141.94Z" fill="#E0E0E0"/>
<path d="M432.76 279.3H394.95V291.47H432.76V279.3Z" fill="#F5F5F5"/>
<path d="M445.92 291.06H408.11V303.23H445.92V291.06Z" fill="#FAFAFA"/>
<path d="M421.91 315.21C421.91 315.21 421.91 315.13 421.91 314.98V314.35C421.91 313.76 421.91 312.96 421.91 311.94C421.91 309.82 421.85 306.8 421.81 303.04L421.98 303.21L384.98 303.3L385.24 303.04V309.24C385.24 311.24 385.24 313.24 385.24 315.19L384.99 314.93L411.42 315.05L419.18 315.12H421.28H422.02C421.794 315.135 421.566 315.135 421.34 315.12H419.29L411.59 315.19L384.99 315.31H384.74V315.06C384.74 313.13 384.74 311.15 384.74 309.11V302.91L385 302.65L422 302.74H422.18V303C422.18 306.81 422.11 309.86 422.09 312C422.09 313 422.09 313.79 422.09 314.37C422.059 314.655 421.998 314.937 421.91 315.21Z" fill="#E0E0E0"/>
<path d="M51.5 114.41H13.69V126.58H51.5V114.41Z" fill="#FAFAFA"/>
<path d="M68.22 114.41C68.2124 114.334 68.2124 114.256 68.22 114.18C68.22 114.01 68.22 113.8 68.22 113.55C68.22 112.96 68.22 112.16 68.22 111.14C68.22 109.02 68.22 106.01 68.13 102.24L68.3 102.41L31.3 102.5L31.56 102.24V108.45C31.56 110.45 31.56 112.45 31.56 114.39L31.31 114.14L57.74 114.25L65.5 114.33H67.6H68.35C68.1202 114.344 67.8898 114.344 67.66 114.33H65.66L57.95 114.41L31.35 114.52H31.1V114.27C31.1 112.35 31.1 110.36 31.1 108.33V102.12L31.36 101.86L68.36 101.95H68.53V102.12C68.53 105.93 68.46 108.98 68.44 111.12C68.44 112.12 68.44 112.91 68.44 113.49C68.3858 113.801 68.3123 114.108 68.22 114.41Z" fill="#E0E0E0"/>
<path d="M456.79 427.46C456.79 427.61 354.52 427.72 228.41 427.72C102.3 427.72 0 427.61 0 427.46C0 427.31 102.24 427.2 228.41 427.2C354.58 427.2 456.79 427.32 456.79 427.46Z" fill="#263238"/>
<path d="M419.92 377L418.57 401.76C418.549 402.185 418.367 402.585 418.06 402.879C417.753 403.173 417.345 403.338 416.92 403.34L372.36 403.67C372.141 403.671 371.923 403.629 371.72 403.547C371.517 403.464 371.332 403.342 371.176 403.188C371.02 403.034 370.896 402.85 370.811 402.648C370.726 402.446 370.681 402.229 370.68 402.01L370.54 382.74C370.537 382.519 370.579 382.3 370.661 382.095C370.744 381.89 370.867 381.703 371.022 381.546C371.177 381.389 371.362 381.264 371.566 381.179C371.77 381.094 371.989 381.05 372.21 381.05H399.61C400.052 381.048 400.477 380.872 400.79 380.56L405.52 375.83C405.674 375.677 405.856 375.556 406.057 375.473C406.258 375.391 406.473 375.349 406.69 375.35L418.24 375.26C418.466 375.258 418.69 375.303 418.899 375.391C419.107 375.478 419.296 375.607 419.453 375.77C419.61 375.933 419.732 376.126 419.813 376.337C419.893 376.548 419.929 376.774 419.92 377Z" fill="#228C39"/>
<path opacity="0.3" d="M419.92 377L418.57 401.76C418.549 402.185 418.367 402.585 418.06 402.879C417.753 403.173 417.345 403.338 416.92 403.34L372.36 403.67C372.141 403.671 371.923 403.629 371.72 403.547C371.517 403.464 371.332 403.342 371.176 403.188C371.02 403.034 370.896 402.85 370.811 402.648C370.726 402.446 370.681 402.229 370.68 402.01L370.54 382.74C370.537 382.519 370.579 382.3 370.661 382.095C370.744 381.89 370.867 381.703 371.022 381.546C371.177 381.389 371.362 381.264 371.566 381.179C371.77 381.094 371.989 381.05 372.21 381.05H399.61C400.052 381.048 400.477 380.872 400.79 380.56L405.52 375.83C405.674 375.677 405.856 375.556 406.057 375.473C406.258 375.391 406.473 375.349 406.69 375.35L418.24 375.26C418.466 375.258 418.69 375.303 418.899 375.391C419.107 375.478 419.296 375.607 419.453 375.77C419.61 375.933 419.732 376.126 419.813 376.337C419.893 376.548 419.929 376.774 419.92 377Z" fill="black"/>
<path d="M370.711 407.184L419.39 406.827L419.177 377.738L370.498 378.094L370.711 407.184Z" fill="#F5F5F5"/>
<path d="M248 395.88L244.83 414.16C244.83 414.16 225.18 417.08 224.27 420.4L259.49 427.82L265.6 399.54L248 395.88Z" fill="#228C39"/>
<g opacity="0.6">
<path d="M256 414.93C256.32 415.101 256.565 415.386 256.685 415.728C256.806 416.071 256.793 416.446 256.65 416.78C256.486 417.102 256.206 417.35 255.866 417.473C255.526 417.595 255.152 417.584 254.82 417.44C254.478 417.251 254.22 416.941 254.096 416.57C253.972 416.2 253.991 415.797 254.15 415.44C254.356 415.116 254.681 414.885 255.054 414.798C255.428 414.71 255.821 414.772 256.15 414.97" fill="white"/>
</g>
<path opacity="0.6" d="M259.47 427.82L259.98 424.94L225.98 418.94C225.98 418.94 224.26 419.29 224.21 420.44L259.47 427.82Z" fill="white"/>
<path d="M244.28 413.86C244.28 414.03 245.09 414.29 245.82 415.02C246.55 415.75 246.82 416.57 247.02 416.54C247.22 416.51 247.15 415.46 246.25 414.54C245.35 413.62 244.27 413.69 244.28 413.86Z" fill="#263238"/>
<path d="M240.26 414.61C240.19 414.77 240.87 415.22 241.26 416.07C241.65 416.92 241.7 417.72 241.87 417.75C242.04 417.78 242.36 416.83 241.8 415.75C241.24 414.67 240.3 414.45 240.26 414.61Z" fill="#263238"/>
<path d="M237.23 418.59C237.38 418.66 237.8 417.85 237.56 416.81C237.32 415.77 236.56 415.24 236.49 415.36C236.42 415.48 236.77 416.1 236.96 416.95C237.15 417.8 237.06 418.54 237.23 418.59Z" fill="#263238"/>
<path d="M245.46 409.77C245.46 409.95 246.34 409.87 247.3 410.15C248.26 410.43 248.95 410.88 249.07 410.75C249.19 410.62 248.59 409.86 247.46 409.55C246.33 409.24 245.41 409.62 245.46 409.77Z" fill="#263238"/>
<path opacity="0.3" d="M247.36 399.5L246.79 402.76L264.13 406.25L264.77 403.34L247.36 399.5Z" fill="black"/>
<path d="M246.17 406.1C246.716 406.379 247.328 406.503 247.94 406.46C248.612 406.486 249.284 406.425 249.94 406.28C250.299 406.209 250.653 406.115 251 406C251.22 405.929 251.428 405.828 251.62 405.7C251.758 405.601 251.859 405.459 251.908 405.296C251.957 405.133 251.951 404.959 251.89 404.8C251.828 404.662 251.735 404.54 251.619 404.443C251.503 404.346 251.367 404.277 251.22 404.24C250.995 404.207 250.765 404.207 250.54 404.24C250.143 404.25 249.748 404.297 249.36 404.38C248.709 404.527 248.085 404.773 247.51 405.11C246.51 405.69 246.12 406.28 246.17 406.32C246.22 406.36 246.75 405.94 247.71 405.49C248.272 405.234 248.863 405.046 249.47 404.93C249.827 404.874 250.188 404.843 250.55 404.84C250.94 404.84 251.26 404.84 251.32 405.07C251.38 405.3 251.32 405.16 251.24 405.26C251.1 405.353 250.949 405.427 250.79 405.48C250.43 405.607 250.097 405.717 249.79 405.81C249.187 405.966 248.571 406.067 247.95 406.11C247.358 406.061 246.763 406.058 246.17 406.1Z" fill="#263238"/>
<path d="M246.34 406.39C246.4 406.39 246.87 405.89 247.17 404.79C247.337 404.137 247.391 403.461 247.33 402.79C247.299 402.397 247.225 402.008 247.11 401.63C247.063 401.377 246.953 401.14 246.788 400.942C246.623 400.744 246.41 400.592 246.17 400.5C246.012 400.469 245.849 400.485 245.7 400.545C245.55 400.606 245.422 400.708 245.33 400.84C245.197 401.025 245.089 401.226 245.01 401.44C244.867 401.822 244.782 402.223 244.76 402.63C244.713 403.317 244.841 404.005 245.13 404.63C245.63 405.69 246.3 406.05 246.33 405.99C246.028 405.503 245.76 404.995 245.53 404.47C245.331 403.903 245.259 403.298 245.32 402.7C245.362 402.358 245.446 402.022 245.57 401.7C245.71 401.34 245.91 401.07 246.04 401.14C246.17 401.21 246.46 401.52 246.54 401.85C246.646 402.176 246.723 402.51 246.77 402.85C246.862 403.46 246.862 404.08 246.77 404.69C246.57 405.74 246.25 406.35 246.34 406.39Z" fill="#263238"/>
<path d="M367.66 396.28L360 386.34L359.6 385.82L346.6 395.47L358.6 408.67L358.24 422C351.55 423.73 350.54 427.08 350.54 427.08H364.46L377.09 402.74L367.66 396.28Z" fill="#228C39"/>
<path opacity="0.6" d="M377.09 402.75L364.46 427.09L350.54 427.11L352.11 425.02L363.42 424.38L375.08 401.38L377.09 402.75Z" fill="white"/>
<path d="M358.33 415.91C358.43 416.05 359.23 415.6 360.33 415.63C361.43 415.66 362.19 416.1 362.33 415.97C362.47 415.84 361.68 415.03 360.33 414.97C358.98 414.91 358.2 415.8 358.33 415.91Z" fill="#263238"/>
<path d="M358.55 412.6C358.69 412.7 359.31 411.88 360.42 411.66C361.53 411.44 362.42 411.95 362.5 411.8C362.58 411.65 362.39 411.51 362 411.29C361.475 411.026 360.876 410.945 360.3 411.061C359.723 411.177 359.202 411.483 358.82 411.93C358.54 412.28 358.48 412.56 358.55 412.6Z" fill="#263238"/>
<path d="M358.46 408.34C358.61 408.42 359.08 407.61 360.05 407.28C361.02 406.95 361.89 407.28 361.96 407.1C362.03 406.92 361.82 406.84 361.44 406.69C360.925 406.514 360.365 406.514 359.85 406.69C359.335 406.872 358.897 407.225 358.61 407.69C358.4 408.05 358.38 408.31 358.46 408.34Z" fill="#263238"/>
<path d="M354.73 405C354.9 405.06 355.29 404.27 356.15 403.71C357.01 403.15 357.88 403.07 357.89 402.89C357.9 402.71 356.89 402.5 355.81 403.2C354.73 403.9 354.56 405 354.73 405Z" fill="#263238"/>
<path d="M352.91 402.19C352.98 402.24 353.44 401.68 354.13 400.73L355.3 399.06C355.568 398.715 355.787 398.335 355.95 397.93C356.029 397.649 355.997 397.348 355.86 397.09C355.779 396.942 355.656 396.822 355.506 396.744C355.357 396.666 355.188 396.633 355.02 396.65C354.531 396.748 354.079 396.984 353.72 397.33C353.392 397.62 353.109 397.957 352.88 398.33C352.487 398.932 352.237 399.616 352.15 400.33C352.009 400.981 352.124 401.661 352.47 402.23C352.466 401.618 352.503 401.007 352.58 400.4C352.713 399.766 352.975 399.167 353.35 398.64C353.566 398.334 353.821 398.058 354.11 397.82C354.391 397.559 354.736 397.376 355.11 397.29C355.162 397.282 355.214 397.29 355.261 397.313C355.308 397.337 355.346 397.374 355.37 397.42C355.422 397.545 355.422 397.685 355.37 397.81C355.233 398.165 355.051 398.501 354.83 398.81L353.77 400.56C353.398 401.054 353.107 401.604 352.91 402.19Z" fill="#263238"/>
<path d="M352.42 402.6C352.48 402.6 352.42 401.87 351.67 401.03C351.157 400.476 350.477 400.105 349.734 399.971C348.991 399.838 348.224 399.95 347.55 400.29C347.479 400.352 347.423 400.429 347.385 400.516C347.347 400.602 347.328 400.696 347.33 400.79C347.341 400.95 347.4 401.104 347.5 401.23C347.648 401.397 347.816 401.544 348 401.67C348.316 401.885 348.651 402.073 349 402.23C349.579 402.496 350.197 402.668 350.83 402.74C351.91 402.85 352.56 402.64 352.54 402.57C352.52 402.5 351.89 402.57 350.9 402.31C349.984 402.115 349.118 401.73 348.36 401.18C348.228 401.088 348.107 400.981 348 400.86C347.93 400.74 347.95 400.78 348 400.74C348.126 400.664 348.265 400.613 348.41 400.59C348.577 400.549 348.748 400.522 348.92 400.51C349.255 400.486 349.592 400.51 349.92 400.58C350.475 400.705 350.991 400.966 351.42 401.34C352.12 402 352.32 402.64 352.42 402.6Z" fill="#263238"/>
<path opacity="0.6" d="M367.64 403.99C368.551 403.99 369.29 403.251 369.29 402.34C369.29 401.429 368.551 400.69 367.64 400.69C366.729 400.69 365.99 401.429 365.99 402.34C365.99 403.251 366.729 403.99 367.64 403.99Z" fill="white"/>
<path opacity="0.3" d="M347.87 396.8L350.54 399.73L361.78 388.61L360.22 386.57L347.87 396.8Z" fill="black"/>
<path d="M279.94 217.7C279.94 217.7 266.94 261.81 255.32 311.7C248.32 341.95 241.66 398.21 241.66 398.21L272.53 405.02L285.75 332.68L299.88 289.85C304.73 276.34 311.69 266.45 320.16 259.13C329.35 246.13 334.16 231.27 332.3 215.44L279.94 217.7Z" fill="#6A3D3D"/>
<path d="M277.39 224.72L288.92 319.72C290.03 328.9 291.59 337.72 297.81 344.55L344.5 399.93L367.64 379.23L318.16 311.56L326.75 216.18L278.33 224.45" fill="#6A3D3D"/>
<path d="M318.62 310.79C318.71 310.96 316.62 312.01 314.67 314.08C312.72 316.15 311.78 318.29 311.6 318.21C311.42 318.13 312.14 315.8 314.21 313.64C316.28 311.48 318.58 310.64 318.62 310.79Z" fill="#455A64"/>
<path d="M317.92 311.5C317.92 311.68 316.08 311.62 313.85 311.84C311.62 312.06 309.85 312.47 309.79 312.29C309.73 312.11 311.49 311.43 313.79 311.21C316.09 310.99 318 311.33 317.92 311.5Z" fill="#455A64"/>
<path d="M330.91 237C330.892 237.368 330.835 237.734 330.74 238.09C330.67 238.46 330.58 238.9 330.48 239.4C330.38 239.9 330.17 240.49 329.98 241.15C328.776 244.836 327.052 248.332 324.86 251.53C322.17 255.63 318.41 260.1 314.43 265.16C312.332 267.791 310.395 270.546 308.63 273.41C306.774 276.511 305.085 279.709 303.57 282.99C300.46 289.75 297.95 296.39 295.83 302.48C293.71 308.57 291.92 314.11 290.43 318.76C288.94 323.41 287.74 327.11 286.89 329.76C286.46 331.01 286.13 332 285.89 332.76C285.785 333.102 285.654 333.437 285.5 333.76C285.555 333.4 285.642 333.045 285.76 332.7L286.65 329.7L290 318.62C291.43 313.95 293.17 308.4 295.27 302.28C297.515 295.634 300.095 289.105 303 282.72C304.521 279.415 306.223 276.197 308.1 273.08C309.885 270.199 311.845 267.43 313.97 264.79C317.97 259.73 321.77 255.31 324.5 251.27C326.701 248.12 328.47 244.69 329.76 241.07C329.97 240.42 330.18 239.85 330.31 239.35C330.44 238.85 330.54 238.43 330.63 238.06C330.7 237.701 330.794 237.347 330.91 237Z" fill="#455A64"/>
<path d="M219.37 190.26L211.26 194.48L197.19 201.39C196.239 201.717 195.441 202.382 194.95 203.26L189.78 212.33H199.65L202.28 207.91C203.936 208.503 205.734 208.566 207.427 208.091C209.12 207.616 210.624 206.627 211.73 205.26L226.06 200.26L219.37 190.26Z" fill="#FFBE9D"/>
<path d="M286.3 70.55C283.3 70.81 280.8 73.01 279.07 75.48C277.34 77.95 276.12 80.75 274.29 83.15C272.93 84.95 271.2 86.56 270.53 88.71C269.46 92.12 271.35 96.07 269.85 99.32C269.01 101.15 267.22 102.41 266.34 104.22C265.24 106.49 265.74 109.22 266.42 111.62C266.745 113.354 267.601 114.944 268.87 116.17C270 116.954 271.305 117.449 272.67 117.61C282.926 119.496 293.515 118.183 303 113.85" fill="#263238"/>
<path d="M309.73 87.66C309.689 85.5803 309.23 83.5301 308.381 81.6311C307.532 79.7321 306.31 78.023 304.788 76.6053C303.265 75.1876 301.474 74.0901 299.52 73.3781C297.565 72.666 295.487 72.3538 293.41 72.46C285.1 72.87 278.71 80.03 278.67 88.35C278.67 95.64 278.76 102.98 279.17 105.59C280.42 113.46 285.48 115.86 287.49 116.51C288.197 116.658 288.918 116.732 289.64 116.73H289.69L289.26 126.04C289.33 132.04 293.41 136.9 299.46 136.9C305.51 136.9 309.51 131.66 309.56 125.59L309.73 87.66Z" fill="#FFBE9D"/>
<path d="M281.62 92.43C281.615 92.7608 281.74 93.0805 281.968 93.3199C282.196 93.5594 282.509 93.6995 282.84 93.71C283.001 93.7236 283.164 93.7047 283.318 93.6544C283.472 93.6041 283.614 93.5234 283.736 93.4171C283.858 93.3107 283.958 93.181 284.029 93.0355C284.1 92.89 284.141 92.7317 284.15 92.57C284.153 92.2399 284.027 91.9217 283.799 91.6828C283.572 91.4439 283.26 91.303 282.93 91.29C282.769 91.2764 282.606 91.2953 282.452 91.3456C282.298 91.3959 282.156 91.4766 282.034 91.5829C281.912 91.6892 281.812 91.819 281.741 91.9645C281.67 92.11 281.629 92.2683 281.62 92.43Z" fill="#263238"/>
<path d="M280.8 90.23C280.96 90.39 281.92 89.68 283.28 89.68C284.64 89.68 285.64 90.37 285.79 90.2C285.94 90.03 285.7 89.83 285.27 89.51C284.681 89.107 283.984 88.8909 283.27 88.89C282.552 88.8863 281.852 89.1104 281.27 89.53C280.86 89.85 280.72 90.15 280.8 90.23Z" fill="#263238"/>
<path d="M295 92.43C294.997 92.7601 295.123 93.0783 295.351 93.3172C295.578 93.5561 295.89 93.697 296.22 93.71C296.381 93.7236 296.544 93.7047 296.698 93.6544C296.852 93.6041 296.994 93.5234 297.116 93.4171C297.238 93.3107 297.338 93.181 297.409 93.0355C297.48 92.89 297.521 92.7317 297.53 92.57C297.533 92.2399 297.407 91.9217 297.179 91.6828C296.952 91.4439 296.64 91.303 296.31 91.29C296.149 91.2764 295.986 91.2953 295.832 91.3456C295.678 91.3959 295.536 91.4766 295.414 91.5829C295.292 91.6892 295.192 91.819 295.121 91.9645C295.05 92.11 295.009 92.2683 295 92.43Z" fill="#263238"/>
<path d="M294.2 90.48C294.36 90.64 295.32 89.93 296.68 89.94C298.04 89.95 299.05 90.62 299.2 90.46C299.35 90.3 299.11 90.08 298.67 89.77C298.085 89.3581 297.385 89.1411 296.67 89.15C295.952 89.1362 295.25 89.3575 294.67 89.78C294.27 90.11 294.13 90.41 294.2 90.48Z" fill="#263238"/>
<path d="M289.69 116.72C289.69 116.72 294.96 117.16 301.55 113.2C301.55 113.2 299.47 120.2 289.55 119.2L289.69 116.72Z" fill="#EB996E"/>
<path d="M289.83 103.88C290.088 103.562 290.423 103.315 290.802 103.161C291.181 103.008 291.593 102.952 292 103C292.302 103.024 292.595 103.11 292.862 103.253C293.129 103.395 293.363 103.592 293.55 103.83C293.733 104.056 293.842 104.333 293.862 104.623C293.881 104.913 293.811 105.202 293.66 105.45C293.441 105.696 293.154 105.87 292.834 105.951C292.515 106.031 292.179 106.013 291.87 105.9C291.228 105.688 290.636 105.347 290.13 104.9C289.974 104.795 289.841 104.659 289.74 104.5C289.691 104.424 289.665 104.335 289.665 104.245C289.665 104.155 289.691 104.066 289.74 103.99" fill="#EB996E"/>
<path d="M293.59 88.09C293.72 88.46 295.09 88.29 296.69 88.48C298.29 88.67 299.58 89.11 299.79 88.78C299.89 88.62 299.66 88.27 299.14 87.91C298.446 87.4673 297.659 87.1901 296.841 87.0999C296.022 87.0098 295.194 87.109 294.42 87.39C293.83 87.62 293.53 87.92 293.59 88.09Z" fill="#263238"/>
<path d="M281.3 87.44C281.54 87.75 282.48 87.44 283.61 87.44C284.74 87.44 285.7 87.65 285.92 87.33C286.01 87.17 285.86 86.86 285.44 86.57C284.888 86.2032 284.232 86.0243 283.57 86.06C282.906 86.0657 282.262 86.2829 281.73 86.68C281.33 87 281.19 87.29 281.3 87.44Z" fill="#263238"/>
<path d="M276.84 86.65C278.84 88.9 283.84 86.65 286.67 84.44C288.456 85.2415 290.484 85.3148 292.324 84.6444C294.163 83.974 295.668 82.6128 296.52 80.85C298.64 82.85 302.17 81.59 303.12 78.85C304.07 76.11 302.81 72.66 300.66 70.67C298.525 68.8417 295.811 67.8315 293 67.82C289.749 67.672 286.525 68.4784 283.727 70.1397C280.928 71.8011 278.677 74.2449 277.25 77.17C275.9 80.02 275.38 83.68 276.86 86.65" fill="#263238"/>
<path d="M300.17 70.55C305.87 68.55 312.39 73.55 313.58 77.69C315.66 84.81 314.81 85.86 316.65 89.15C317.84 91.28 321.16 93.15 322.65 95.33C324.29 97.66 324.9 101.89 324.41 104.69C323.99 107.05 321.88 113.78 321.88 113.78C321.88 113.78 313.11 114.78 308.48 114.27C307.293 114.209 306.138 113.866 305.11 113.27C304.16 112.62 305.52 109.7 305.19 108.6C304.27 105.44 301.58 103.93 301.81 100.6C302.11 96.25 305.4 95.6 304.7 91.24C304.32 88.96 300.43 86.17 299.78 83.94C299.13 81.71 296.67 74 300.14 70.51" fill="#263238"/>
<path d="M314.76 84.1C314.61 84.1 314.7 82.63 314.41 80.87C314.12 79.11 313.59 77.76 313.73 77.69C314.422 78.585 314.839 79.6621 314.93 80.79C315.191 81.8869 315.132 83.0357 314.76 84.1Z" fill="#228C39"/>
<path d="M291.86 68.9C290.59 69.061 289.333 69.315 288.1 69.66C285.169 70.5935 282.631 72.4712 280.88 75C279.263 77.6234 278.373 80.6293 278.3 83.71C278.313 84.9878 278.433 86.2624 278.66 87.52C278.486 87.2087 278.364 86.8709 278.3 86.52C278.069 85.594 277.949 84.6442 277.94 83.69C277.894 80.5124 278.761 77.3884 280.44 74.69C282.255 72.0695 284.929 70.1663 288 69.31C288.915 69.0431 289.858 68.8886 290.81 68.85C291.16 68.8066 291.515 68.8235 291.86 68.9Z" fill="#455A64"/>
<path d="M285.11 81.72C284.975 81.4472 284.891 81.1526 284.86 80.85C284.71 80.0355 284.677 79.2039 284.76 78.38C284.865 77.0013 285.252 75.6589 285.897 74.4358C286.542 73.2126 287.43 72.1347 288.508 71.2687C289.586 70.4026 290.83 69.7669 292.164 69.4008C293.497 69.0346 294.891 68.9459 296.26 69.14C297.083 69.2337 297.888 69.4459 298.65 69.77C298.938 69.8622 299.206 70.0081 299.44 70.2C298.389 69.8738 297.312 69.6396 296.22 69.5C293.568 69.2246 290.914 70.0071 288.836 71.6774C286.757 73.3476 285.422 75.7707 285.12 78.42C285.026 79.5178 285.022 80.6216 285.11 81.72Z" fill="#455A64"/>
<path d="M330.66 223.85L319.84 182.06L323.58 165.72L329 135C329 135 324 128.24 311.22 127.58L310.37 121.37L288.37 122.16L287.97 128.03C284.711 128.843 281.659 130.332 279.011 132.399C276.364 134.466 274.18 137.066 272.6 140.03L257 169.31L214.44 190.69L220.08 203.91C220.08 203.91 262.87 187.68 266.5 186.1C268.9 185.04 271.5 180.61 273.78 175.84C275.49 184.02 277.26 190.51 277.26 190.51L276.9 222.56L330.66 223.85Z" fill="#228C39"/>
<path d="M278.12 145.61C278.118 145.761 278.087 145.91 278.03 146.05C277.94 146.32 277.82 146.73 277.64 147.24C277.29 148.24 276.73 149.76 276.01 151.57C275.29 153.38 274.41 155.57 273.62 157.98C273.214 159.253 272.88 160.549 272.62 161.86C272.327 163.26 272.216 164.692 272.29 166.12C272.481 168.897 272.886 171.655 273.5 174.37C274.03 176.89 274.57 179.15 275.03 181.04C275.49 182.93 275.86 184.47 276.09 185.54C276.21 186.07 276.29 186.54 276.34 186.77C276.381 186.913 276.398 187.062 276.39 187.21C276.189 186.681 276.022 186.14 275.89 185.59L274.67 181.13C274.17 179.25 273.59 177 273.03 174.47C272.384 171.732 271.962 168.946 271.77 166.14C271.698 164.671 271.815 163.199 272.12 161.76C272.388 160.428 272.742 159.116 273.18 157.83C274 155.37 274.92 153.23 275.68 151.43C276.44 149.63 277.06 148.18 277.46 147.17C277.648 146.637 277.868 146.116 278.12 145.61Z" fill="#263238"/>
<path d="M320 181.69C320 181.74 319.36 181.69 318.23 181.83C316.632 181.976 315.052 182.274 313.51 182.72C311.51 183.24 309.26 184.08 306.72 185C303.973 186.063 301.13 186.857 298.23 187.37C291.275 188.485 284.145 187.339 277.89 184.1C277.39 183.83 277.01 183.59 276.75 183.44C276.613 183.369 276.485 183.282 276.37 183.18C276.926 183.383 277.464 183.631 277.98 183.92C279.441 184.588 280.94 185.169 282.47 185.66C287.539 187.238 292.901 187.645 298.15 186.85C301.019 186.347 303.834 185.577 306.56 184.55C309.11 183.65 311.42 182.85 313.41 182.36C314.983 181.945 316.595 181.697 318.22 181.62C318.79 181.62 319.22 181.62 319.54 181.62C319.696 181.618 319.852 181.642 320 181.69Z" fill="#FAFAFA"/>
<path d="M297.6 173.57C298.18 174.73 332.78 202.32 342.69 210.22C343.035 210.494 343.322 210.834 343.534 211.22C343.747 211.605 343.882 212.029 343.93 212.467C343.978 212.905 343.94 213.348 343.816 213.77C343.692 214.193 343.486 214.587 343.21 214.93L320.14 243.59C319.583 244.276 318.779 244.715 317.902 244.812C317.024 244.909 316.143 244.657 315.45 244.11L271.25 209.11C270.895 208.828 270.601 208.477 270.385 208.079C270.17 207.68 270.037 207.242 269.995 206.791C269.953 206.34 270.002 205.885 270.141 205.453C270.279 205.022 270.503 204.623 270.8 204.28L297.6 173.57Z" fill="#263238"/>
<path d="M297.07 168.68C297.67 169.88 334.71 199.4 343.07 206.08C343.51 206.435 343.792 206.95 343.854 207.512C343.916 208.074 343.753 208.638 343.4 209.08L318.81 239.61C318.636 239.83 318.42 240.013 318.174 240.149C317.929 240.285 317.659 240.372 317.381 240.403C317.102 240.435 316.82 240.411 316.55 240.333C316.281 240.256 316.029 240.125 315.81 239.95L269.67 203.37C269.444 203.19 269.257 202.966 269.12 202.712C268.982 202.457 268.898 202.178 268.872 201.89C268.846 201.602 268.878 201.312 268.967 201.037C269.056 200.762 269.2 200.508 269.39 200.29L297.07 168.68Z" fill="#228C39"/>
<path opacity="0.4" d="M297.07 168.68C297.68 169.89 335.42 199.97 343.34 206.27C343.723 206.576 343.969 207.022 344.023 207.51C344.078 207.998 343.936 208.487 343.63 208.87L318.63 239.87C318.326 240.25 317.883 240.493 317.4 240.548C316.916 240.602 316.431 240.463 316.05 240.16L269.44 203.16C269.244 203.005 269.081 202.812 268.962 202.592C268.844 202.372 268.771 202.13 268.748 201.882C268.726 201.633 268.754 201.382 268.832 201.144C268.91 200.907 269.035 200.688 269.2 200.5L297.07 168.68Z" fill="black"/>
<path d="M300.89 169.21C312.61 178.99 344.33 204.21 344.33 204.21L319.74 234.74C319.025 235.613 317.998 236.172 316.876 236.297C315.755 236.422 314.63 236.104 313.74 235.41L271 201.57C270.543 201.207 270.164 200.755 269.887 200.241C269.609 199.728 269.439 199.163 269.385 198.582C269.332 198.001 269.397 197.414 269.577 196.859C269.756 196.303 270.047 195.79 270.43 195.35L292.7 169.86C293.707 168.699 295.13 167.981 296.662 167.859C298.194 167.738 299.712 168.223 300.89 169.21Z" fill="#455A64"/>
<path d="M330.25 192.96L330.88 197.29L342.11 206.94L344.33 204.19L330.25 192.96Z" fill="#FAFAFA"/>
<path d="M297.35 235.61L307.95 226.76L302.81 214.5L295.66 221C293.988 221.458 292.278 221.759 290.55 221.9C289.665 221.979 288.773 221.911 287.91 221.7C286.827 221.472 285.78 221.095 284.8 220.58C284.636 220.429 284.425 220.337 284.203 220.319C283.98 220.301 283.758 220.358 283.571 220.481C283.385 220.604 283.245 220.786 283.174 220.998C283.103 221.21 283.105 221.439 283.18 221.65C283.5 222.52 285.8 224.12 289.04 224.65C291.95 225.11 288.65 227.25 286.79 228.39C286.625 228.49 286.503 228.648 286.448 228.832C286.393 229.017 286.408 229.216 286.49 229.39C287.5 231.57 291.31 238.77 297.35 235.61Z" fill="#FFBE9D"/>
<path d="M314.22 148.81C313.42 137.81 323.64 126.64 329.6 135.89C336.13 146.04 350.47 169.89 354 186.1C355.65 193.65 310.39 229.65 307.59 231.87C307.51 231.93 306.79 230.94 306.73 230.87L295.54 219.27C295.48 219.2 298.17 216.46 298.23 216.4L330.1 185.21C330.124 185.18 330.136 185.143 330.136 185.105C330.136 185.067 330.124 185.03 330.1 185C329.06 183 315 157.36 314.24 149.1C314.23 149 314.23 148.9 314.22 148.81Z" fill="#228C39"/>
<path d="M339.36 185C339.28 185.21 337.17 184.54 334.49 184.47C331.81 184.4 329.66 184.92 329.6 184.71C329.54 184.5 331.68 183.65 334.51 183.71C337.34 183.77 339.44 184.79 339.36 185Z" fill="#263238"/>
<path d="M337.38 188.48C337.22 188.62 335.92 187.19 333.85 186.14C331.78 185.09 329.85 184.82 329.91 184.61C329.97 184.4 331.97 184.33 334.19 185.49C336.41 186.65 337.54 188.38 337.38 188.48Z" fill="#263238"/>
<path d="M330.1 185.19C329.959 185.012 329.841 184.817 329.75 184.61L328.85 182.89C328.05 181.33 326.95 179.16 325.6 176.51C322.89 171.06 319.18 163.62 315.08 155.4C312.946 151.587 311.666 147.356 311.33 143C311.05 139 312.21 135.2 314.33 133C315.274 131.981 316.461 131.217 317.78 130.78C318.771 130.435 319.825 130.306 320.87 130.4C321.524 130.453 322.163 130.619 322.76 130.89C322.916 130.958 323.066 131.039 323.21 131.13L323.36 131.22C322.559 130.89 321.713 130.681 320.85 130.6C319.83 130.544 318.809 130.697 317.85 131.05C316.59 131.498 315.462 132.254 314.57 133.25C312.57 135.43 311.45 139.08 311.75 143.01C312.103 147.308 313.379 151.48 315.49 155.24L325.87 176.42L328.97 182.87L329.79 184.63C329.913 184.805 330.017 184.993 330.1 185.19Z" fill="#263238"/>
<g opacity="0.3">
<path d="M311.87 142.62C310.72 152.38 309.87 162.23 310.78 172.01C311.25 177.15 316.7 183.61 320.99 186.49L319.84 182.06C320.47 179.2 322.58 170.13 322.58 170.13C322.58 170.13 318.66 162.39 317.11 159.56C314.107 154.381 312.316 148.59 311.87 142.62Z" fill="black"/>
</g>
<path d="M125.26 127.19C125.194 127.496 125.079 127.79 124.92 128.06C124.546 128.829 124.107 129.565 123.61 130.26C121.952 132.583 119.759 134.473 117.215 135.768C114.672 137.063 111.854 137.726 109 137.7C108.145 137.696 107.292 137.619 106.45 137.47C106.135 137.442 105.828 137.361 105.54 137.23C105.54 137.14 106.87 137.4 109 137.33C111.781 137.256 114.511 136.559 116.987 135.29C119.464 134.022 121.624 132.214 123.31 130C124.62 128.36 125.18 127.14 125.26 127.19Z" fill="#FAFAFA"/>
<path d="M134.59 147.13C134.248 147.121 133.909 147.053 133.59 146.93C132.738 146.663 131.922 146.294 131.16 145.83C128.567 144.319 126.601 141.928 125.62 139.092C124.638 136.255 124.706 133.161 125.81 130.37C126.122 129.531 126.539 128.735 127.05 128C127.214 127.718 127.424 127.465 127.67 127.25C127.088 128.293 126.58 129.376 126.15 130.49C125.185 133.209 125.175 136.176 126.12 138.902C127.065 141.628 128.909 143.951 131.35 145.49C132.391 146.111 133.473 146.659 134.59 147.13Z" fill="#FAFAFA"/>
<path d="M127 155.92C126.978 154.443 126.77 152.975 126.38 151.55C125.9 150.026 125.152 148.6 124.17 147.34C122.969 145.797 121.482 144.5 119.79 143.52C116.666 141.77 113.062 141.069 109.51 141.52C108.044 141.739 106.594 142.056 105.17 142.47C105.512 142.251 105.882 142.079 106.27 141.96C107.303 141.582 108.372 141.31 109.46 141.15C113.102 140.575 116.832 141.241 120.05 143.04C121.802 144.063 123.335 145.422 124.56 147.04C125.552 148.358 126.288 149.851 126.73 151.44C127.035 152.506 127.174 153.612 127.14 154.72C127.152 155.125 127.105 155.529 127 155.92Z" fill="#FAFAFA"/>
<path d="M131.23 156.74H37.96V427.47H131.23V156.74Z" fill="#263238"/>
<path d="M181.29 156.74H79.17V427.47H181.29V156.74Z" fill="#455A64"/>
<path d="M176.73 233.58H85.72V289.47H176.73V233.58Z" fill="#455A64"/>
<path d="M116.4 365.56H147.57V367C147.57 367.57 147.344 368.117 146.94 368.52C146.537 368.923 145.99 369.15 145.42 369.15H118.55C117.98 369.15 117.433 368.923 117.03 368.52C116.627 368.117 116.4 367.57 116.4 367V365.59V365.56Z" fill="#263238"/>
<path d="M176.53 365.56C176.53 365.56 176.53 365.88 176.53 366.56C176.53 367.24 176.53 368.2 176.53 369.47C176.53 372.04 176.53 375.81 176.53 380.63C176.53 390.36 176.59 404.35 176.64 421.48V421.68H176.43L85.43 421.74H85.12V421.48C85.12 401.7 85.12 382.83 85.12 365.67V365.43H85.36L151.01 365.49H169.76H174.76H176.03H176.45H176H174.7H169.7L150.9 365.57L85.41 365.75L85.65 365.51C85.65 382.67 85.65 401.51 85.65 421.32L85.39 421.06L176.39 421.12L176.19 421.32C176.19 404.24 176.27 390.32 176.3 380.6C176.3 375.75 176.3 371.97 176.35 369.39C176.35 368.11 176.35 367.12 176.35 366.44C176.35 365.76 176.53 365.56 176.53 365.56Z" fill="#263238"/>
<path d="M146.35 379.21H119.25V386.53H146.35V379.21Z" fill="#E0E0E0"/>
<path d="M176.73 295.78H85.72V351.67H176.73V295.78Z" fill="#455A64"/>
<path d="M116.28 303H147.45V304.41C147.45 304.98 147.224 305.527 146.82 305.93C146.417 306.333 145.87 306.56 145.3 306.56H118.43C117.86 306.56 117.313 306.333 116.91 305.93C116.507 305.527 116.28 304.98 116.28 304.41V303Z" fill="#263238"/>
<path d="M177.39 303C177.39 303 177.39 303.32 177.39 304C177.39 304.68 177.39 305.64 177.39 306.91C177.39 309.48 177.39 313.25 177.44 318.08C177.44 327.8 177.5 341.79 177.55 358.92V359.12H177.34L86.34 359.18H86.03V358.92C86.03 339.14 86.03 320.28 86.03 303.11V302.87H86.27L151.92 302.93H170.67H175.67H177H177.42H176.97H175.68H170.68L151.89 303.01L86.39 303.19L86.63 302.95C86.63 320.12 86.63 338.95 86.63 358.76L86.37 358.5L177.37 358.56L177.17 358.76C177.17 341.68 177.25 327.76 177.28 318.04C177.28 313.2 177.28 309.41 177.28 306.83C177.28 305.55 177.28 304.57 177.28 303.89C177.28 303.21 177.39 303 177.39 303Z" fill="#263238"/>
<path d="M145.42 316.26H118.32V323.58H145.42V316.26Z" fill="#E0E0E0"/>
<path d="M116.61 164.12H147.78V165.53C147.78 165.812 147.724 166.092 147.616 166.353C147.508 166.614 147.35 166.851 147.15 167.05C146.951 167.25 146.714 167.408 146.453 167.516C146.192 167.624 145.912 167.68 145.63 167.68H118.76C118.478 167.68 118.198 167.624 117.937 167.516C117.676 167.408 117.439 167.25 117.24 167.05C117.04 166.851 116.882 166.614 116.774 166.353C116.666 166.092 116.61 165.812 116.61 165.53V164.12Z" fill="#263238"/>
<path d="M176.74 164.12C176.74 164.12 176.74 164.44 176.74 165.12C176.74 165.8 176.74 166.76 176.74 168.02C176.74 170.6 176.74 174.36 176.79 179.19C176.79 188.92 176.86 202.91 176.9 220.04V220.24H176.7L85.7 220.3H85.39V220C85.39 200.21 85.39 181.35 85.39 164.18V164H85.63L151.29 164.06H170.03H175.03H176.3H176.72H176.27H175H170L151.2 164.15L85.7 164.32L85.94 164.08C85.94 181.25 85.94 200.08 85.94 219.9L85.68 219.63L176.68 219.69L176.47 219.9C176.52 202.82 176.55 188.9 176.58 179.18C176.58 174.33 176.58 170.55 176.63 167.96C176.63 166.68 176.63 165.7 176.63 165.02C176.63 164.34 176.74 164.12 176.74 164.12Z" fill="#263238"/>
<path d="M145.26 176.03H118.16V183.35H145.26V176.03Z" fill="#E0E0E0"/>
<path d="M86 251.7V230.7C86 230.268 86.0852 229.841 86.2506 229.442C86.4161 229.044 86.6586 228.682 86.9642 228.377C87.2699 228.072 87.6326 227.831 88.0317 227.667C88.4308 227.503 88.8584 227.419 89.29 227.42H145.22C146.078 227.42 146.9 227.76 147.507 228.365C148.115 228.971 148.457 229.792 148.46 230.65V251.7H86Z" fill="#228C39"/>
<path opacity="0.3" d="M86 251.7V230.7C86 230.268 86.0852 229.841 86.2506 229.442C86.4161 229.044 86.6586 228.682 86.9642 228.377C87.2699 228.072 87.6326 227.831 88.0317 227.667C88.4308 227.503 88.8584 227.419 89.29 227.42H145.22C146.078 227.42 146.9 227.76 147.507 228.365C148.115 228.971 148.457 229.792 148.46 230.65V251.7H86Z" fill="black"/>
<path d="M91.74 251.7V233.24C91.7387 233.197 91.7459 233.153 91.7613 233.113C91.7766 233.072 91.7998 233.035 91.8296 233.004C91.8593 232.972 91.8949 232.947 91.9345 232.929C91.974 232.911 92.0167 232.901 92.06 232.9H148.47V251.7H91.74Z" fill="#FAFAFA"/>
<path d="M161.17 229.36L159.57 251.7H98.85L100.48 231C100.474 230.124 100.798 229.278 101.387 228.629C101.976 227.981 102.787 227.578 103.66 227.5L133.2 227.66C133.146 227.069 133.325 226.48 133.699 226.019C134.072 225.558 134.611 225.26 135.2 225.19H158C159.87 225.15 161.34 227.09 161.17 229.36Z" fill="#228C39"/>
<path d="M110.88 249.52V228.52C110.879 228.088 110.963 227.661 111.127 227.262C111.291 226.863 111.532 226.5 111.837 226.194C112.142 225.889 112.504 225.646 112.903 225.481C113.301 225.315 113.728 225.23 114.16 225.23H170.1C170.958 225.233 171.779 225.575 172.385 226.182C172.99 226.79 173.33 227.612 173.33 228.47V249.52H110.88Z" fill="#228C39"/>
<path opacity="0.3" d="M110.88 249.52V228.52C110.879 228.088 110.963 227.661 111.127 227.262C111.291 226.863 111.532 226.5 111.837 226.194C112.142 225.889 112.504 225.646 112.903 225.481C113.301 225.315 113.728 225.23 114.16 225.23H170.1C170.958 225.233 171.779 225.575 172.385 226.182C172.99 226.79 173.33 227.612 173.33 228.47V249.52H110.88Z" fill="black"/>
<path d="M116.6 249.52V231.06C116.599 231.017 116.606 230.973 116.621 230.933C116.637 230.892 116.66 230.855 116.69 230.824C116.719 230.792 116.755 230.767 116.794 230.749C116.834 230.731 116.877 230.721 116.92 230.72H173.33V249.52H116.6Z" fill="#FAFAFA"/>
<path d="M186 227.18L184.39 249.52H123.72L125.34 228.78C125.337 227.903 125.662 227.057 126.253 226.409C126.844 225.76 127.657 225.358 128.53 225.28L158.07 225.44C158.016 224.849 158.195 224.26 158.569 223.799C158.942 223.338 159.481 223.04 160.07 222.97H182.84C184.73 223 186.2 224.91 186 227.18Z" fill="#228C39"/>
<path d="M145.47 250.74V229.74C145.47 229.308 145.555 228.881 145.721 228.482C145.886 228.084 146.129 227.722 146.434 227.417C146.74 227.112 147.103 226.871 147.502 226.707C147.901 226.543 148.328 226.459 148.76 226.46H204.7C205.557 226.46 206.378 226.8 206.984 227.406C207.59 228.012 207.93 228.833 207.93 229.69V250.75L145.47 250.74Z" fill="#228C39"/>
<path opacity="0.3" d="M145.47 250.74V229.74C145.47 229.308 145.555 228.881 145.721 228.482C145.886 228.084 146.129 227.722 146.434 227.417C146.74 227.112 147.103 226.871 147.502 226.707C147.901 226.543 148.328 226.459 148.76 226.46H204.7C205.557 226.46 206.378 226.8 206.984 227.406C207.59 228.012 207.93 228.833 207.93 229.69V250.75L145.47 250.74Z" fill="black"/>
<path d="M151.2 250.74V232.27C151.199 232.227 151.206 232.183 151.221 232.143C151.237 232.102 151.26 232.065 151.29 232.034C151.319 232.002 151.355 231.977 151.395 231.959C151.434 231.941 151.477 231.931 151.52 231.93H207.93V250.74H151.2Z" fill="#FAFAFA"/>
<path d="M211.26 227.13H154.04V260.67H211.26V227.13Z" fill="#E0E0E0"/>
<path d="M215.97 212.24H158.31V248H215.97V212.24Z" fill="#F5F5F5"/>
<path d="M168.82 245.73C168.68 245.73 168.56 239.56 168.56 231.94C168.56 224.32 168.68 218.14 168.82 218.14C168.96 218.14 169.08 224.32 169.08 231.94C169.08 239.56 169 245.73 168.82 245.73Z" fill="#263238"/>
<path d="M172.92 245.73C172.77 245.73 172.66 239.56 172.66 231.94C172.66 224.32 172.77 218.14 172.92 218.14C173.07 218.14 173.18 224.32 173.18 231.94C173.18 239.56 173.06 245.73 172.92 245.73Z" fill="#263238"/>
<path d="M177.38 245.73C177.24 245.73 177.12 239.56 177.12 231.94C177.12 224.32 177.24 218.14 177.38 218.14C177.52 218.14 177.64 224.32 177.64 231.94C177.64 239.56 177.53 245.73 177.38 245.73Z" fill="#263238"/>
<path d="M181.84 245.73C181.7 245.73 181.58 239.56 181.58 231.94C181.58 224.32 181.7 218.14 181.84 218.14C181.98 218.14 182.1 224.32 182.1 231.94C182.1 239.56 182 245.73 181.84 245.73Z" fill="#263238"/>
<path d="M186.31 245.73C186.16 245.73 186.05 239.56 186.05 231.94C186.05 224.32 186.16 218.14 186.31 218.14C186.46 218.14 186.57 224.32 186.57 231.94C186.57 239.56 186.45 245.73 186.31 245.73Z" fill="#263238"/>
<path d="M190.77 245.73C190.63 245.73 190.51 239.56 190.51 231.94C190.51 224.32 190.63 218.14 190.77 218.14C190.91 218.14 191.03 224.32 191.03 231.94C191.03 239.56 190.91 245.73 190.77 245.73Z" fill="#263238"/>
<path d="M195.23 245.73C195.09 245.73 194.97 239.56 194.97 231.94C194.97 224.32 195.09 218.14 195.23 218.14C195.37 218.14 195.49 224.32 195.49 231.94C195.49 239.56 195.38 245.73 195.23 245.73Z" fill="#263238"/>
<path d="M199.7 245.73C199.55 245.73 199.44 239.56 199.44 231.94C199.44 224.32 199.55 218.14 199.7 218.14C199.85 218.14 199.96 224.32 199.96 231.94C199.96 239.56 199.84 245.73 199.7 245.73Z" fill="#263238"/>
<path d="M204.16 245.73C204.02 245.73 203.9 239.56 203.9 231.94C203.9 224.32 204.02 218.14 204.16 218.14C204.3 218.14 204.42 224.32 204.42 231.94C204.42 239.56 204.3 245.73 204.16 245.73Z" fill="#263238"/>
<path d="M208.62 245.73C208.48 245.73 208.36 239.56 208.36 231.94C208.36 224.32 208.48 218.14 208.62 218.14C208.76 218.14 208.88 224.32 208.88 231.94C208.88 239.56 208.77 245.73 208.62 245.73Z" fill="#263238"/>
<path d="M220.64 232.34L219 250.74H158.31L159.94 233.66C160.017 232.869 160.387 232.135 160.977 231.602C161.567 231.069 162.335 230.776 163.13 230.78L192.66 230.91C192.66 230.38 192.871 229.871 193.246 229.496C193.621 229.121 194.13 228.91 194.66 228.91H217.43C217.872 228.906 218.309 228.994 218.715 229.168C219.121 229.341 219.486 229.598 219.788 229.92C220.09 230.243 220.321 230.624 220.468 231.041C220.615 231.457 220.673 231.9 220.64 232.34Z" fill="#228C39"/>
<path d="M176.51 240.52H85.5V296.41H176.51V240.52Z" fill="#263238"/>
<path d="M231.57 240.52H140.56V296.41H231.57V240.52Z" fill="#455A64"/>
<path d="M231.58 296.14C231.58 296.14 231.58 295.79 231.58 295.14C231.58 294.49 231.58 293.49 231.58 292.22C231.58 289.65 231.58 285.9 231.53 281.09C231.53 271.47 231.47 257.63 231.42 240.68L231.63 240.88L140.63 240.94L140.89 240.68C140.89 260.33 140.89 279.08 140.89 296.15L140.65 295.91L206 296L224.79 296.07H229.79H231.09H231.54H231.12H229.85H224.85L206.12 296.14L140.49 296.26H140.25V296.02C140.25 278.95 140.25 260.2 140.25 240.55V240.29H140.52L231.52 240.34H231.72V240.55C231.72 257.55 231.64 271.44 231.61 281.09C231.61 285.88 231.61 289.61 231.61 292.17C231.61 293.42 231.61 294.38 231.61 295.05C231.61 295.72 231.58 296.14 231.58 296.14Z" fill="#263238"/>
<path d="M173.31 240.52H204.48V241.75C204.48 242.32 204.254 242.867 203.85 243.27C203.447 243.673 202.9 243.9 202.33 243.9H175.46C174.89 243.9 174.343 243.673 173.94 243.27C173.537 242.867 173.31 242.32 173.31 241.75V240.52Z" fill="#263238"/>
<path d="M203.03 253.04H175.93V260.36H203.03V253.04Z" fill="#E0E0E0"/>
<path d="M201.9 205.68C201.04 209.175 200.518 212.745 200.34 216.34C200.34 216.8 200.34 217.34 200.74 217.59C201.14 217.84 201.74 217.14 202.08 216.74C202.72 216 205.08 211.92 205.08 211.92C206.735 211.764 208.275 211.008 209.41 209.793C210.545 208.579 211.196 206.991 211.24 205.33" fill="#FFBE9D"/>
<path d="M211.26 205.33C211.301 205.575 211.301 205.825 211.26 206.07C211.198 206.76 211.026 207.435 210.75 208.07C210.324 209.056 209.665 209.924 208.83 210.6C207.756 211.456 206.464 211.996 205.1 212.16L205.29 212.04C204.53 213.34 203.71 214.76 202.76 216.2C202.623 216.422 202.472 216.636 202.31 216.84L201.81 217.42C201.615 217.653 201.353 217.821 201.06 217.9C200.884 217.916 200.708 217.874 200.556 217.783C200.405 217.691 200.288 217.553 200.22 217.39C200.06 216.9 200.019 216.379 200.1 215.87C200.1 215.41 200.17 214.96 200.2 214.52C200.36 212.76 200.59 211.18 200.83 209.87C201.07 208.56 201.33 207.5 201.52 206.78C201.593 206.4 201.714 206.03 201.88 205.68C201.872 206.068 201.818 206.454 201.72 206.83C201.59 207.56 201.39 208.62 201.2 209.93C201.01 211.24 200.81 212.81 200.68 214.56C200.68 215 200.62 215.44 200.6 215.9C200.532 216.324 200.56 216.758 200.68 217.17C200.76 217.32 200.9 217.42 200.98 217.39C201.157 217.322 201.312 217.208 201.43 217.06C201.597 216.886 201.754 216.702 201.9 216.51C202.054 216.318 202.197 216.117 202.33 215.91C203.26 214.5 204.1 213.08 204.86 211.79L204.93 211.69H205.05C206.33 211.556 207.548 211.071 208.57 210.29C209.376 209.671 210.026 208.874 210.47 207.96C210.844 207.12 211.109 206.237 211.26 205.33Z" fill="#EB996E"/>
<path d="M438.888 340C444.14 334.611 447.628 327.737 448.885 320.3C450.301 308.912 438.18 325.083 438.18 325.083C438.18 325.083 432.119 302.023 428.579 314.919C425.039 327.816 438.888 340 438.888 340Z" fill="#228C39"/>
<path d="M422.431 336C422.431 336 424.53 325.33 420.668 317.858C416.806 310.386 406.675 311.094 396.377 314.292C392.06 315.895 387.569 316.969 383 317.49C390.031 322.26 397.445 326.425 405.164 329.943C410.78 332.348 416.549 334.371 422.431 336Z" fill="#228C39"/>
<path d="M438.985 375C439.254 375 439.512 374.901 439.703 374.725C439.893 374.549 440 374.311 440 374.062V322.91C440 322.788 439.974 322.667 439.922 322.555C439.871 322.443 439.796 322.341 439.701 322.257C439.606 322.172 439.494 322.105 439.371 322.061C439.248 322.017 439.117 321.997 438.985 322C438.724 322 438.473 322.096 438.289 322.267C438.104 322.437 438 322.669 438 322.91V374.062C437.996 374.184 438.019 374.305 438.066 374.419C438.114 374.533 438.186 374.636 438.278 374.724C438.37 374.811 438.479 374.881 438.601 374.928C438.722 374.976 438.853 375 438.985 375Z" fill="#263238"/>
<path d="M435.071 375H435.215C435.457 374.958 435.673 374.824 435.818 374.626C435.962 374.429 436.025 374.183 435.991 373.941C435.819 372.652 431.446 342.131 416.604 325.267C416.427 325.096 416.189 325 415.942 325C415.695 325 415.458 325.096 415.281 325.267C415.192 325.353 415.121 325.455 415.073 325.568C415.025 325.681 415 325.803 415 325.926C415 326.049 415.025 326.17 415.073 326.283C415.121 326.397 415.192 326.499 415.281 326.584C429.663 343.105 434.179 374.055 434.237 374.37C434.295 374.547 434.406 374.702 434.555 374.815C434.704 374.927 434.884 374.992 435.071 375Z" fill="#263238"/>
<path d="M443.09 373.996C443.347 373.996 443.595 373.897 443.777 373.72C443.959 373.543 444.061 373.304 444.061 373.054C444.061 372.768 443.914 343.5 461.731 329.593C461.894 329.428 461.989 329.211 461.999 328.983C462.009 328.754 461.933 328.53 461.786 328.352C461.638 328.174 461.428 328.054 461.196 328.014C460.964 327.975 460.725 328.018 460.523 328.137C441.853 342.643 442 371.826 442 373.082C442.007 373.212 442.042 373.34 442.101 373.457C442.16 373.574 442.243 373.678 442.345 373.763C442.446 373.849 442.565 373.913 442.693 373.953C442.821 373.993 442.956 374.008 443.09 373.996Z" fill="#263238"/>
<path d="M429.089 373.999H429.315C429.433 373.97 429.544 373.916 429.641 373.843C429.738 373.769 429.819 373.676 429.88 373.57C429.94 373.463 429.979 373.346 429.994 373.224C430.008 373.103 429.998 372.979 429.964 372.862C428.165 366.622 425.362 360.723 421.665 355.399C421.595 355.298 421.505 355.212 421.402 355.146C421.299 355.08 421.183 355.035 421.063 355.014C420.942 354.993 420.818 354.996 420.699 355.023C420.58 355.05 420.467 355.1 420.367 355.171C420.175 355.323 420.048 355.543 420.011 355.786C419.974 356.029 420.031 356.277 420.169 356.48C423.735 361.624 426.443 367.321 428.186 373.345C428.242 373.54 428.362 373.71 428.526 373.829C428.689 373.947 428.888 374.007 429.089 373.999Z" fill="#263238"/>
<path d="M423.994 359.48C423.994 359.48 424.333 349.642 420.064 348.3C415.796 346.959 411.894 350.424 408.756 352.521C405.619 354.617 402 356.741 402 363.085C402.366 369.111 403.198 375.1 404.488 381C404.488 381 408.05 370.1 414.099 365.181C416.904 362.546 420.292 360.594 423.994 359.48Z" fill="#228C39"/>
<path d="M449.896 374C450.084 373.993 450.267 373.928 450.418 373.812C450.57 373.696 450.683 373.535 450.744 373.351C452.521 368.038 455.616 363.298 459.722 359.603C459.883 359.445 459.981 359.23 459.997 359.001C460.014 358.773 459.948 358.545 459.813 358.364C459.677 358.182 459.481 358.058 459.262 358.016C459.044 357.974 458.818 358.016 458.628 358.136C454.233 362.059 450.928 367.114 449.047 372.786C449.009 372.901 448.994 373.023 449.002 373.144C449.011 373.265 449.043 373.383 449.096 373.491C449.15 373.599 449.224 373.695 449.314 373.772C449.405 373.85 449.509 373.908 449.622 373.943L449.896 374Z" fill="#263238"/>
<path d="M454.297 362.805C453.52 359.039 454.28 355.122 456.41 351.911C459.959 347.358 468.466 348.391 472.719 353.307C476.972 358.223 483 373 483 373C477.66 369.018 471.249 366.695 464.578 366.324C454.635 366.324 454.297 362.805 454.297 362.805Z" fill="#228C39"/>
<path d="M426 429H454L468 382H412L426 429Z" fill="#263238" stroke="#263238" stroke-linecap="round" stroke-linejoin="round"/>
<path d="M411 382H469V374H411V382Z" fill="#B00B9F" stroke="#263238" stroke-linecap="round" stroke-linejoin="round"/>
</g>
<defs>
<clipPath id="clip0_47_261">
<rect width="461.59" height="427.82" fill="white"/>
</clipPath>
</defs>
</svg>
